<svg width="25" height="25" viewBox="0 0 25 25" fill="none" xmlns="http://www.w3.org/2000/svg">
<path id="Vector" d="M24.9278 12.491C21.5113 12.4495 18.7525 9.67409 18.7525 6.24782C15.3263 6.24782 12.5514 3.48952 12.5094 0.0735016C11.1783 -0.128647 9.81747 0.0881501 8.61679 0.699478L5.2413 2.4192C4.02617 3.03846 3.03836 4.02661 2.41952 5.24196L0.705657 8.60524C0.0849809 9.82367 -0.134141 11.2073 0.0796807 12.5579L0.669524 16.282C0.883134 17.6313 1.51828 18.8783 2.48398 19.8445L5.15829 22.5183C6.12094 23.4813 7.36376 24.1147 8.70859 24.3279L12.4542 24.9212C13.7975 25.134 15.1739 24.9158 16.3863 24.2981L19.7618 22.5789C20.9768 21.9595 21.9646 20.9714 22.5836 19.7561L24.2975 16.3928C24.9107 15.1897 25.128 13.8255 24.9278 12.491ZM8.59384 17.9685C7.73105 17.9685 7.03134 17.2688 7.03134 16.406C7.03134 15.5432 7.73105 14.8435 8.59384 14.8435C9.45663 14.8435 10.1563 15.5432 10.1563 16.406C10.1563 17.2688 9.45663 17.9685 8.59384 17.9685ZM10.1563 10.156C9.29355 10.156 8.59384 9.45631 8.59384 8.59352C8.59384 7.73073 9.29355 7.03102 10.1563 7.03102C11.0191 7.03102 11.7188 7.73073 11.7188 8.59352C11.7188 9.45631 11.0191 10.156 10.1563 10.156ZM17.9688 16.406C17.106 16.406 16.4063 15.7063 16.4063 14.8435C16.4063 13.9807 17.106 13.281 17.9688 13.281C18.8316 13.281 19.5313 13.9807 19.5313 14.8435C19.5313 15.7063 18.8316 16.406 17.9688 16.406Z" fill="black"/>
</svg>
