<svg width="17" height="18" viewBox="0 0 17 18" fill="none" xmlns="http://www.w3.org/2000/svg">
<path id="Vector" d="M15.9231 2.76923H12.4615V2.07692C12.4615 1.52609 12.2427 0.997815 11.8532 0.608317C11.4637 0.218818 10.9355 0 10.3846 0H6.23077C5.67994 0 5.15166 0.218818 4.76216 0.608317C4.37266 0.997815 4.15385 1.52609 4.15385 2.07692V2.76923H0.692308C0.508696 2.76923 0.332605 2.84217 0.202772 2.972C0.0729395 3.10184 0 3.27793 0 3.46154C0 3.64515 0.0729395 3.82124 0.202772 3.95107C0.332605 4.08091 0.508696 4.15385 0.692308 4.15385H1.38462V16.6154C1.38462 16.9826 1.53049 17.3348 1.79016 17.5945C2.04983 17.8541 2.40201 18 2.76923 18H13.8462C14.2134 18 14.5656 17.8541 14.8252 17.5945C15.0849 17.3348 15.2308 16.9826 15.2308 16.6154V4.15385H15.9231C16.1067 4.15385 16.2828 4.08091 16.4126 3.95107C16.5424 3.82124 16.6154 3.64515 16.6154 3.46154C16.6154 3.27793 16.5424 3.10184 16.4126 2.972C16.2828 2.84217 16.1067 2.76923 15.9231 2.76923ZM6.92308 13.1538C6.92308 13.3375 6.85014 13.5135 6.72031 13.6434C6.59047 13.7732 6.41438 13.8462 6.23077 13.8462C6.04716 13.8462 5.87107 13.7732 5.74123 13.6434C5.6114 13.5135 5.53846 13.3375 5.53846 13.1538V7.61538C5.53846 7.43177 5.6114 7.25568 5.74123 7.12585C5.87107 6.99602 6.04716 6.92308 6.23077 6.92308C6.41438 6.92308 6.59047 6.99602 6.72031 7.12585C6.85014 7.25568 6.92308 7.43177 6.92308 7.61538V13.1538ZM11.0769 13.1538C11.0769 13.3375 11.004 13.5135 10.8742 13.6434C10.7443 13.7732 10.5682 13.8462 10.3846 13.8462C10.201 13.8462 10.0249 13.7732 9.89508 13.6434C9.76525 13.5135 9.69231 13.3375 9.69231 13.1538V7.61538C9.69231 7.43177 9.76525 7.25568 9.89508 7.12585C10.0249 6.99602 10.201 6.92308 10.3846 6.92308C10.5682 6.92308 10.7443 6.99602 10.8742 7.12585C11.004 7.25568 11.0769 7.43177 11.0769 7.61538V13.1538ZM11.0769 2.76923H5.53846V2.07692C5.53846 1.89331 5.6114 1.71722 5.74123 1.58739C5.87107 1.45755 6.04716 1.38462 6.23077 1.38462H10.3846C10.5682 1.38462 10.7443 1.45755 10.8742 1.58739C11.004 1.71722 11.0769 1.89331 11.0769 2.07692V2.76923Z" fill="#DE0000"/>
</svg>
