<svg width="30" height="23" viewBox="0 0 30 23" fill="none" xmlns="http://www.w3.org/2000/svg">
<path id="Vector" d="M28.75 0H1.15C0.845001 0 0.552494 0.121161 0.336827 0.336827C0.12116 0.552494 0 0.845001 0 1.15V20.7C0 21.31 0.242321 21.895 0.673654 22.3263C1.10499 22.7577 1.69 23 2.3 23H27.6C28.21 23 28.795 22.7577 29.2263 22.3263C29.6577 21.895 29.9 21.31 29.9 20.7V1.15C29.9 0.845001 29.7788 0.552494 29.5632 0.336827C29.3475 0.121161 29.055 0 28.75 0ZM10.7396 11.5L2.3 19.2352V3.76481L10.7396 11.5ZM12.4416 13.0597L14.1666 14.6481C14.3787 14.8429 14.6562 14.951 14.9442 14.951C15.2323 14.951 15.5098 14.8429 15.7219 14.6481L17.4469 13.0597L25.7844 20.7H4.10694L12.4416 13.0597ZM19.1604 11.5L27.6 3.76337V19.2366L19.1604 11.5Z" fill="black"/>
</svg>
