<svg width="32" height="28" viewBox="0 0 32 28" fill="none" xmlns="http://www.w3.org/2000/svg">
<path id="Vector" d="M7.30452 9.73936H12.1742V17.0439H7.30452V9.73936ZM31.6529 2.43484V26.7832C31.6528 26.9907 31.5997 27.1948 31.4985 27.3759C31.3974 27.5571 31.2516 27.7094 31.0751 27.8185C30.8985 27.9275 30.697 27.9895 30.4898 27.9988C30.2825 28.008 30.0763 27.9642 29.8907 27.8713L25.5658 25.7089L21.2409 27.8713C21.0718 27.9559 20.8853 28 20.6961 28C20.507 28 20.3205 27.9559 20.1513 27.8713L15.8265 25.7089L11.5016 27.8713C11.3324 27.9559 11.1459 28 10.9568 28C10.7676 28 10.5811 27.9559 10.412 27.8713L6.0871 25.7089L1.76222 27.8713C1.57666 27.9642 1.37044 28.008 1.16315 27.9988C0.955864 27.9895 0.754379 27.9275 0.577826 27.8185C0.401274 27.7094 0.255514 27.5571 0.154384 27.3759C0.0532538 27.1948 0.000110773 26.9907 0 26.7832V2.43484C0 1.78908 0.256527 1.16977 0.713148 0.713148C1.16977 0.256527 1.78908 0 2.43484 0H29.2181C29.8638 0 30.4831 0.256527 30.9398 0.713148C31.3964 1.16977 31.6529 1.78908 31.6529 2.43484ZM14.609 8.52194C14.609 8.19906 14.4808 7.8894 14.2525 7.66109C14.0242 7.43278 13.7145 7.30452 13.3916 7.30452H6.0871C5.76422 7.30452 5.45456 7.43278 5.22625 7.66109C4.99794 7.8894 4.86968 8.19906 4.86968 8.52194V18.2613C4.86968 18.5842 4.99794 18.8938 5.22625 19.1221C5.45456 19.3505 5.76422 19.4787 6.0871 19.4787H13.3916C13.7145 19.4787 14.0242 19.3505 14.2525 19.1221C14.4808 18.8938 14.609 18.5842 14.609 18.2613V8.52194ZM26.7832 15.8265C26.7832 15.5036 26.655 15.1939 26.4267 14.9656C26.1983 14.7373 25.8887 14.609 25.5658 14.609H18.2613C17.9384 14.609 17.6288 14.7373 17.4004 14.9656C17.1721 15.1939 17.0439 15.5036 17.0439 15.8265C17.0439 16.1493 17.1721 16.459 17.4004 16.6873C17.6288 16.9156 17.9384 17.0439 18.2613 17.0439H25.5658C25.8887 17.0439 26.1983 16.9156 26.4267 16.6873C26.655 16.459 26.7832 16.1493 26.7832 15.8265ZM26.7832 10.9568C26.7832 10.6339 26.655 10.3242 26.4267 10.0959C26.1983 9.86762 25.8887 9.73936 25.5658 9.73936H18.2613C17.9384 9.73936 17.6288 9.86762 17.4004 10.0959C17.1721 10.3242 17.0439 10.6339 17.0439 10.9568C17.0439 11.2797 17.1721 11.5893 17.4004 11.8176C17.6288 12.0459 17.9384 12.1742 18.2613 12.1742H25.5658C25.8887 12.1742 26.1983 12.0459 26.4267 11.8176C26.655 11.5893 26.7832 11.2797 26.7832 10.9568Z" fill="#F5F5F5"/>
</svg>
