<svg width="25" height="25" viewBox="0 0 25 25" fill="none" xmlns="http://www.w3.org/2000/svg">
<path id="Vector" d="M12.5 0C10.0277 0 7.61099 0.733112 5.55538 2.10663C3.49976 3.48015 1.89761 5.43238 0.951511 7.71646C0.00541606 10.0005 -0.242126 12.5139 0.24019 14.9386C0.722505 17.3634 1.91301 19.5907 3.66117 21.3388C5.40933 23.087 7.63661 24.2775 10.0614 24.7598C12.4861 25.2421 14.9995 24.9946 17.2835 24.0485C19.5676 23.1024 21.5199 21.5002 22.8934 19.4446C24.2669 17.389 25 14.9723 25 12.5C24.9965 9.18587 23.6784 6.00848 21.335 3.66503C18.9915 1.32158 15.8141 0.00349978 12.5 0ZM12.0192 5.76923C12.3045 5.76923 12.5834 5.85382 12.8205 6.0123C13.0577 6.17078 13.2426 6.39604 13.3518 6.65959C13.4609 6.92314 13.4895 7.21314 13.4338 7.49292C13.3782 7.7727 13.2408 8.02969 13.0391 8.2314C12.8374 8.43311 12.5804 8.57048 12.3006 8.62613C12.0208 8.68178 11.7308 8.65322 11.4673 8.54406C11.2037 8.43489 10.9785 8.25003 10.82 8.01284C10.6615 7.77565 10.5769 7.4968 10.5769 7.21154C10.5769 6.82901 10.7289 6.46216 10.9994 6.19167C11.2699 5.92119 11.6367 5.76923 12.0192 5.76923ZM13.4615 19.2308C12.9515 19.2308 12.4624 19.0282 12.1017 18.6675C11.7411 18.3069 11.5385 17.8177 11.5385 17.3077V12.5C11.2834 12.5 11.0389 12.3987 10.8586 12.2184C10.6782 12.038 10.5769 11.7935 10.5769 11.5385C10.5769 11.2834 10.6782 11.0389 10.8586 10.8585C11.0389 10.6782 11.2834 10.5769 11.5385 10.5769C12.0485 10.5769 12.5376 10.7795 12.8983 11.1402C13.2589 11.5008 13.4615 11.99 13.4615 12.5V17.3077C13.7166 17.3077 13.9611 17.409 14.1415 17.5893C14.3218 17.7696 14.4231 18.0142 14.4231 18.2692C14.4231 18.5242 14.3218 18.7688 14.1415 18.9491C13.9611 19.1295 13.7166 19.2308 13.4615 19.2308Z" fill="black"/>
</svg>
