<svg width="20" height="25" viewBox="0 0 20 25" fill="none" xmlns="http://www.w3.org/2000/svg">
<path id="Vector" d="M9.82153 0C7.2176 0.00295397 4.72117 1.03867 2.87992 2.87992C1.03867 4.72117 0.00295397 7.2176 0 9.82153C0 18.2256 8.92866 24.5728 9.30925 24.8384C9.45937 24.9436 9.63823 25 9.82153 25C10.0048 25 10.1837 24.9436 10.3338 24.8384C10.7144 24.5728 19.6431 18.2256 19.6431 9.82153C19.6401 7.2176 18.6044 4.72117 16.7631 2.87992C14.9219 1.03867 12.4255 0.00295397 9.82153 0ZM9.82153 6.25006C10.5279 6.25006 11.2184 6.45953 11.8057 6.85196C12.393 7.2444 12.8508 7.80219 13.1211 8.45479C13.3914 9.10739 13.4622 9.82549 13.3244 10.5183C13.1866 11.2111 12.8464 11.8475 12.3469 12.3469C11.8475 12.8464 11.2111 13.1866 10.5183 13.3244C9.82549 13.4622 9.10739 13.3914 8.45479 13.1211C7.80219 12.8508 7.2444 12.393 6.85196 11.8057C6.45953 11.2184 6.25006 10.5279 6.25006 9.82153C6.25006 8.87432 6.62634 7.9659 7.29612 7.29612C7.9659 6.62634 8.87432 6.25006 9.82153 6.25006Z" fill="black"/>
</svg>
