<svg width="25" height="25" viewBox="0 0 25 25" fill="none" xmlns="http://www.w3.org/2000/svg">
<path id="Vector" d="M24.985 18.8847C24.7621 20.5785 23.9303 22.1333 22.6449 23.2586C21.3595 24.3839 19.7084 25.0028 18 24.9997C8.07501 24.9997 1.13108e-05 16.9247 1.13108e-05 6.99975C-0.00305116 5.29136 0.61587 3.64028 1.74118 2.35487C2.86649 1.06946 4.42122 0.23763 6.11501 0.0147471C6.54333 -0.0375518 6.97707 0.0500744 7.35149 0.264545C7.72592 0.479016 8.02094 0.808828 8.19251 1.20475L10.8325 7.0985V7.1135C10.9639 7.41656 11.0181 7.74745 10.9904 8.07659C10.9627 8.40574 10.8539 8.7229 10.6738 8.99975C10.6513 9.0335 10.6275 9.06475 10.6025 9.096L8.00001 12.181C8.93626 14.0835 10.9263 16.056 12.8538 16.9947L15.8963 14.406C15.9261 14.3809 15.9574 14.3575 15.99 14.336C16.2666 14.1515 16.5849 14.0389 16.916 14.0083C17.2471 13.9778 17.5806 14.0302 17.8863 14.161L17.9025 14.1685L23.7913 16.8072C24.1879 16.9782 24.5185 17.273 24.7337 17.6474C24.9489 18.0219 25.037 18.456 24.985 18.8847Z" fill="black"/>
</svg>
