<svg width="34" height="30" viewBox="0 0 34 30" fill="none" xmlns="http://www.w3.org/2000/svg">
<path id="Vector" d="M33.0035 10.4169C32.7789 10.1603 32.5021 9.95455 32.1917 9.81332C31.8813 9.67208 31.5443 9.59861 31.2033 9.59781H25.7472L17.7019 0.406318C17.5892 0.278616 17.4507 0.176341 17.2955 0.106286C17.1404 0.0362308 16.972 0 16.8018 0C16.6315 0 16.4632 0.0362308 16.308 0.106286C16.1528 0.176341 16.0143 0.278616 15.9017 0.406318L7.85631 9.59781H2.40022C2.05828 9.59781 1.72029 9.67088 1.40888 9.8121C1.09748 9.95333 0.819837 10.1595 0.59456 10.4167C0.369282 10.6739 0.201566 10.9763 0.102642 11.3037C0.00371809 11.631 -0.0241298 11.9756 0.0209632 12.3146L2.10019 27.9178C2.17727 28.4944 2.46118 29.0235 2.8991 29.4065C3.33703 29.7895 3.89916 30.0004 4.48094 30H29.1226C29.7044 30.0004 30.2665 29.7895 30.7044 29.4065C31.1424 29.0235 31.4263 28.4944 31.5034 27.9178L33.5841 12.3161C33.6284 11.9764 33.5996 11.6312 33.4994 11.3036C33.3993 10.9761 33.2302 10.6737 33.0035 10.4169ZM9.84102 25.1995C9.80055 25.2017 9.75998 25.2017 9.71951 25.1995C9.42095 25.201 9.13256 25.0911 8.91065 24.8914C8.68873 24.6917 8.54923 24.4164 8.51938 24.1194L7.67929 15.7185C7.64746 15.4018 7.74274 15.0854 7.94418 14.8389C8.14561 14.5925 8.4367 14.4362 8.7534 14.4043C9.07011 14.3725 9.38648 14.4678 9.63293 14.6692C9.87938 14.8706 10.0357 15.1617 10.0675 15.4784L10.9076 23.8793C10.9412 24.1958 10.8478 24.5127 10.6477 24.7603C10.4477 25.0079 10.1575 25.1659 9.84102 25.1995ZM18.0019 23.9994C18.0019 24.3176 17.8755 24.6229 17.6504 24.848C17.4253 25.073 17.1201 25.1995 16.8018 25.1995C16.4835 25.1995 16.1782 25.073 15.9531 24.848C15.7281 24.6229 15.6016 24.3176 15.6016 23.9994V15.5985C15.6016 15.2802 15.7281 14.9749 15.9531 14.7498C16.1782 14.5248 16.4835 14.3983 16.8018 14.3983C17.1201 14.3983 17.4253 14.5248 17.6504 14.7498C17.8755 14.9749 18.0019 15.2802 18.0019 15.5985V23.9994ZM11.0456 9.59781L16.8018 3.0196L22.5579 9.59781H11.0456ZM25.9167 15.7185L25.0767 24.1194C25.0469 24.4151 24.9085 24.6894 24.6882 24.8889C24.4678 25.0884 24.1813 25.1991 23.884 25.1995C23.8436 25.2017 23.803 25.2017 23.7625 25.1995C23.6057 25.1837 23.4535 25.1372 23.3147 25.0627C23.1758 24.9881 23.053 24.8869 22.9533 24.7649C22.8535 24.6428 22.7788 24.5024 22.7334 24.3515C22.6879 24.2005 22.6726 24.0422 22.6884 23.8853L23.5285 15.4844C23.5603 15.1677 23.7167 14.8766 23.9631 14.6752C24.2096 14.4738 24.5259 14.3785 24.8426 14.4103C25.1593 14.4422 25.4504 14.5985 25.6519 14.8449C25.8533 15.0914 25.9486 15.4078 25.9167 15.7245V15.7185Z" fill="#F5F5F5"/>
</svg>
